<svg xmlns="http://www.w3.org/2000/svg" width="1024" height="1024" viewBox="0 0 1024 1024">
<g>
<path d="M 644.41 595.16 C641.93,596.77 638.13,598.09 634.75,598.51 C629.78,599.13 629.06,598.99 628.09,597.17 C627.49,596.05 625.99,595.00 624.75,594.82 C623.16,594.59 622.41,593.72 622.19,591.82 C622.02,590.35 621.23,588.61 620.44,587.95 C618.31,586.18 618.66,585.23 622.07,583.46 C624.54,582.18 624.91,581.60 623.97,580.47 C622.97,579.25 622.30,579.27 619.22,580.55 C616.51,581.68 615.47,581.76 614.91,580.86 C613.01,577.78 616.57,573.67 633.50,559.42 C643.60,550.91 676.79,520.19 677.77,518.45 C678.17,517.73 681.70,513.84 685.60,509.82 C695.67,499.43 713.11,478.28 722.61,464.91 C739.11,441.70 744.19,433.23 740.82,434.51 C740.09,434.79 737.31,432.98 734.64,430.49 C729.56,425.75 729.44,423.95 734.09,422.47 C737.30,421.45 736.24,418.77 730.15,412.47 L 724.32 406.43 L 725.74 402.47 C726.52,400.28 727.17,396.36 727.19,393.75 C727.21,391.14 727.63,389.00 728.12,389.00 C728.60,389.00 729.00,388.43 729.00,387.74 C729.00,387.05 729.90,385.92 731.00,385.23 C732.13,384.53 733.00,382.90 733.00,381.49 C733.00,380.12 733.44,379.00 733.98,379.00 C734.52,379.00 735.26,377.76 735.62,376.25 C736.50,372.58 738.35,369.02 740.90,366.10 C743.36,363.28 743.62,359.76 741.50,358.00 C740.67,357.32 740.00,357.03 740.00,357.36 C740.00,357.69 738.54,357.08 736.75,356.00 C734.96,354.92 729.22,351.98 724.00,349.47 C707.28,341.43 704.14,339.59 703.07,337.25 C701.59,334.00 703.14,331.97 709.82,328.45 C712.88,326.83 718.12,323.88 721.45,321.91 C724.78,319.93 729.53,317.17 732.00,315.77 C734.47,314.37 740.33,311.00 745.00,308.29 C749.67,305.58 755.97,302.00 759.00,300.35 C762.03,298.69 773.72,292.15 785.00,285.81 C796.28,279.46 807.53,273.15 810.00,271.78 C812.47,270.41 822.23,264.94 831.68,259.64 C841.12,254.34 849.34,250.00 849.93,250.00 C850.60,250.00 851.01,253.06 851.02,258.25 C851.04,262.79 851.50,277.30 852.05,290.50 C853.50,325.11 855.89,427.12 855.29,428.68 C854.53,430.66 853.17,430.32 847.63,426.75 C844.85,424.96 841.78,423.05 840.80,422.50 C839.83,421.95 833.34,417.94 826.39,413.58 C816.75,407.54 813.39,405.90 812.20,406.65 C810.84,407.50 803.00,419.44 803.00,420.65 C803.00,421.07 795.75,432.38 785.15,448.50 C780.19,456.05 773.83,465.12 765.17,477.00 C733.00,521.14 688.57,566.77 661.18,583.80 C655.60,587.26 650.47,590.64 649.77,591.30 C649.07,591.96 646.66,593.70 644.41,595.16 ZM 452.64 530.72 C441.15,544.41 440.77,544.33 448.06,529.67 C462.96,499.70 487.86,471.88 511.00,459.35 C517.67,455.73 530.48,450.36 536.84,448.51 C558.80,442.12 587.86,442.21 613.00,448.74 C616.03,449.53 620.19,450.59 622.26,451.09 C630.48,453.11 647.00,460.27 647.00,461.83 C647.00,463.45 615.97,494.74 607.80,501.36 C602.59,505.57 601.24,505.57 595.02,501.36 C593.10,500.06 590.77,499.00 589.83,499.00 C588.89,499.00 587.87,498.59 587.56,498.09 C586.83,496.91 572.51,490.91 568.00,489.90 C566.08,489.46 561.58,488.43 558.00,487.59 C542.52,483.97 513.11,487.27 498.00,494.33 C490.73,497.73 479.59,505.01 472.50,511.00 C461.11,520.62 461.17,520.56 452.64,530.72 ZM 724.50 689.00 C720.26,691.38 718.00,691.55 718.00,689.50 C718.00,688.67 717.55,688.00 717.00,688.00 C716.45,688.00 716.00,687.09 716.00,685.99 C716.00,684.88 715.60,683.19 715.10,682.24 C714.61,681.28 712.98,677.12 711.49,673.00 C702.30,647.62 694.00,629.09 684.37,612.41 C681.42,607.29 679.00,602.20 679.00,601.10 C679.00,599.81 682.09,596.52 687.75,591.80 C692.56,587.79 698.17,582.97 700.22,581.11 C707.50,574.50 708.03,574.30 710.45,577.34 C713.03,580.57 730.96,613.57 737.71,627.50 C745.74,644.07 752.91,662.69 754.37,670.77 C754.88,673.61 754.44,674.58 751.04,678.08 C748.89,680.30 746.53,682.01 745.81,681.87 C743.53,681.45 733.55,683.18 732.26,684.23 C731.58,684.78 731.27,685.63 731.57,686.11 C731.87,686.60 731.21,687.00 730.09,687.00 C728.97,687.00 726.46,687.90 724.50,689.00 ZM 343.36 780.19 C335.40,785.57 332.06,784.53 336.37,778.02 C344.59,765.59 346.21,744.51 340.39,725.50 C338.52,719.37 335.94,714.44 330.27,706.14 C325.53,699.19 323.19,692.41 324.49,689.40 C324.94,688.36 325.21,684.80 325.08,681.50 C324.89,676.79 324.39,675.15 322.76,673.88 C321.48,672.87 320.93,671.64 321.31,670.63 C322.09,668.61 324.02,668.55 326.56,670.47 C327.63,671.28 329.46,671.95 330.63,671.97 C335.90,672.05 344.58,677.38 352.67,685.53 C363.09,696.02 365.90,701.93 367.87,717.50 C369.66,731.68 366.07,751.44 359.76,762.10 C356.29,767.96 348.14,776.96 343.36,780.19 ZM 663.37 346.88 C662.01,347.50 660.81,347.95 660.70,347.88 C660.59,347.82 659.60,347.58 658.50,347.35 C649.69,345.52 636.50,341.48 634.50,340.01 C633.95,339.61 632.34,339.00 630.92,338.66 C628.68,338.13 626.00,334.55 626.00,332.10 C626.00,331.66 627.91,330.51 630.25,329.55 C636.85,326.82 638.53,325.78 642.92,321.71 C645.16,319.63 647.00,317.04 647.00,315.96 C647.00,313.04 648.54,313.56 653.17,318.05 C657.73,322.47 658.86,324.33 660.98,330.86 C661.75,333.25 662.91,335.41 663.55,335.66 C664.18,335.90 664.49,337.20 664.24,338.54 C663.94,340.11 664.30,341.18 665.28,341.55 C667.43,342.38 666.29,345.55 663.37,346.88 ZM 685.40 326.63 C685.84,328.07 685.57,328.95 684.56,329.34 C682.81,330.01 680.00,327.54 680.00,325.34 C680.00,324.50 679.10,322.67 678.00,321.27 C675.27,317.80 675.21,311.00 677.91,311.00 C679.36,311.00 679.99,311.96 680.50,314.99 C680.87,317.19 681.61,319.26 682.15,319.59 C683.09,320.17 684.00,322.15 685.40,326.63 ZM 720.52 420.97 C719.56,422.52 716.02,422.20 715.37,420.51 C715.05,419.69 715.29,417.60 715.90,415.86 C716.50,414.12 717.00,411.43 717.00,409.88 C717.00,407.70 717.75,406.67 720.25,405.37 C722.65,404.13 723.21,404.06 722.39,405.10 C721.78,405.87 721.26,409.53 721.22,413.22 C721.18,416.92 720.86,420.41 720.52,420.97 ZM 626.30 606.10 C624.42,607.98 618.50,608.30 617.09,606.61 C614.77,603.82 616.51,602.00 621.50,602.00 C626.14,602.00 628.43,603.97 626.30,606.10 ZM 736.64 428.31 C737.57,429.24 739.00,428.11 739.00,426.44 C739.00,425.65 738.33,425.00 737.50,425.00 C735.99,425.00 735.44,427.11 736.64,428.31 Z" fill="rgb(27,118,111)"/>
<path d="M 644.41 595.16 C646.66,593.70 649.07,591.96 649.77,591.30 C650.47,590.64 655.60,587.26 661.18,583.80 C668.34,579.34 676.68,572.93 685.65,565.10 C666.21,582.33 647.12,595.85 619.99,612.25 C603.36,622.31 571.17,637.14 555.46,641.98 C551.63,643.16 546.70,644.72 544.50,645.44 C542.30,646.15 538.47,647.30 536.00,647.99 C533.53,648.67 530.38,649.59 529.00,650.02 C527.62,650.45 524.47,651.28 522.00,651.85 C516.68,653.08 504.55,654.22 503.89,653.55 C503.63,653.30 496.96,652.86 489.06,652.59 C481.16,652.32 474.32,651.72 473.87,651.27 C473.41,650.81 474.59,648.65 476.50,646.47 C480.28,642.13 480.81,639.91 478.50,638.00 C476.76,636.56 476.52,633.42 478.07,632.46 C478.66,632.09 478.89,631.15 478.59,630.37 C478.25,629.50 478.91,628.61 480.27,628.08 C484.11,626.61 493.25,624.20 499.50,623.01 C506.44,621.69 524.92,616.11 536.50,611.84 C556.88,604.32 590.89,585.96 602.52,576.20 C603.63,575.26 606.23,573.23 608.29,571.68 C610.35,570.14 611.80,568.48 611.50,568.01 C611.21,567.53 611.88,566.86 612.99,566.50 C615.16,565.81 615.51,564.35 614.05,562.05 C613.28,560.82 612.74,560.80 610.69,561.90 C608.79,562.92 607.77,562.95 606.05,562.03 C604.84,561.38 603.26,561.07 602.55,561.34 C601.84,561.62 600.26,560.48 599.03,558.83 C597.50,556.76 596.21,555.97 594.90,556.32 C593.85,556.59 592.66,556.21 592.25,555.48 C591.84,554.75 589.70,554.00 587.51,553.82 C582.40,553.41 581.50,550.72 585.95,549.17 C588.24,548.37 589.00,548.40 589.01,549.30 C589.03,550.49 590.76,547.85 593.15,543.00 C595.35,538.54 597.23,537.00 600.47,537.00 C603.70,537.00 608.02,533.45 609.33,529.73 C609.67,528.75 610.75,527.66 611.73,527.30 C612.70,526.94 617.22,523.01 621.76,518.57 C626.30,514.13 630.80,510.10 631.76,509.62 C636.20,507.37 670.60,469.57 687.84,448.00 C704.08,427.67 743.93,361.45 741.38,359.02 C740.80,358.47 739.61,357.66 737.92,356.66 C739.13,357.31 740.00,357.61 740.00,357.36 C740.00,357.03 740.67,357.32 741.50,358.00 C743.62,359.76 743.36,363.28 740.90,366.10 C738.35,369.02 736.50,372.58 735.62,376.25 C735.26,377.76 734.52,379.00 733.98,379.00 C733.44,379.00 733.00,380.12 733.00,381.49 C733.00,382.90 732.13,384.53 731.00,385.23 C729.90,385.92 729.00,387.05 729.00,387.74 C729.00,388.43 728.60,389.00 728.12,389.00 C727.63,389.00 727.21,391.14 727.19,393.75 C727.17,396.36 726.52,400.28 725.74,402.47 L 724.32 406.43 L 730.15 412.47 C736.24,418.77 737.30,421.45 734.09,422.47 C729.44,423.95 729.56,425.75 734.64,430.49 C737.31,432.98 740.09,434.79 740.82,434.51 C744.19,433.23 739.11,441.70 722.61,464.91 C713.11,478.28 695.67,499.43 685.60,509.82 C681.70,513.84 678.17,517.73 677.77,518.45 C676.79,520.19 643.60,550.91 633.50,559.42 C616.57,573.67 613.01,577.78 614.91,580.86 C615.47,581.76 616.51,581.68 619.22,580.55 C622.30,579.27 622.97,579.25 623.97,580.47 C624.91,581.60 624.54,582.18 622.07,583.46 C618.66,585.23 618.31,586.18 620.44,587.95 C621.23,588.61 622.02,590.35 622.19,591.82 C622.41,593.72 623.16,594.59 624.75,594.82 C625.99,595.00 627.49,596.05 628.09,597.17 C629.06,598.99 629.78,599.13 634.75,598.51 C638.13,598.09 641.93,596.77 644.41,595.16 ZM 724.50 689.00 C726.46,687.90 728.97,687.00 730.09,687.00 C731.21,687.00 731.87,686.60 731.57,686.11 C731.27,685.63 731.58,684.78 732.26,684.23 C733.55,683.18 743.53,681.45 745.81,681.87 C746.53,682.01 748.89,680.30 751.04,678.08 C754.44,674.58 754.88,673.61 754.37,670.77 C752.91,662.69 745.74,644.07 737.71,627.50 C730.96,613.57 713.03,580.57 710.45,577.34 C708.48,574.87 707.76,574.54 703.64,578.07 C707.42,574.60 711.84,570.40 718.79,563.75 C726.70,556.19 733.77,550.00 734.49,550.00 C735.79,550.00 737.63,552.55 748.16,569.00 C757.19,583.09 768.63,605.87 770.52,613.50 C771.47,617.35 772.59,620.95 773.01,621.50 C773.71,622.42 774.32,624.73 775.48,630.87 C775.92,633.17 775.87,633.19 773.99,631.49 C771.59,629.32 764.22,629.98 762.35,632.53 C761.68,633.45 760.64,633.90 760.05,633.53 C759.45,633.16 757.58,634.01 755.90,635.43 C754.22,636.84 751.76,638.27 750.43,638.61 C749.64,638.80 749.10,638.93 748.78,639.26 C748.08,640.02 748.54,641.86 750.08,648.04 L 750.20 648.50 C750.75,650.70 754.75,663.01 759.08,675.85 C763.42,688.70 768.54,705.57 770.46,713.35 C774.10,728.11 775.49,741.69 773.31,741.27 C772.66,741.14 771.84,741.93 771.49,743.02 C771.01,744.54 769.97,745.00 767.00,745.00 C764.88,745.00 762.55,745.58 761.82,746.29 C761.09,747.00 758.36,748.58 755.75,749.80 C753.14,751.01 751.00,752.36 751.00,752.79 C751.00,753.22 749.65,754.37 748.00,755.34 C746.35,756.32 744.99,757.65 744.97,758.31 C744.95,758.96 744.09,760.51 743.06,761.75 C742.02,762.99 740.98,764.00 740.74,764.00 C739.39,764.00 737.00,759.95 737.00,757.66 C737.00,756.18 736.58,754.19 736.07,753.24 C735.56,752.28 733.75,746.33 732.06,740.00 C727.20,721.91 726.85,720.64 725.90,718.20 C725.40,716.94 725.00,715.02 725.00,713.94 C725.00,712.86 724.56,711.19 724.02,710.24 C723.02,708.46 718.31,693.99 716.61,687.84 C716.73,687.94 716.86,688.00 717.00,688.00 C717.55,688.00 718.00,688.67 718.00,689.50 C718.00,691.55 720.26,691.38 724.50,689.00 ZM 343.36 780.19 C343.72,779.94 344.10,779.67 344.50,779.36 C337.35,785.29 329.32,789.84 322.50,791.55 C319.75,792.24 314.89,793.52 311.70,794.40 C308.51,795.28 304.91,795.92 303.70,795.83 C290.84,794.80 290.10,794.28 292.02,787.43 C293.68,781.49 292.74,762.78 290.62,759.54 C289.13,757.27 290.00,755.00 292.35,755.00 C293.85,755.00 301.97,748.91 306.65,744.28 C312.12,738.86 313.70,733.64 312.15,726.08 C310.93,720.17 306.77,713.31 303.54,711.90 C302.42,711.41 300.60,710.46 299.50,709.79 C289.96,703.97 287.00,701.77 287.00,700.49 C287.00,699.67 286.37,699.00 285.61,699.00 C283.76,699.00 282.65,695.95 284.01,694.59 C284.77,693.83 285.35,693.95 286.03,695.01 C286.74,696.13 286.97,695.75 286.98,693.44 C286.99,691.76 287.66,689.51 288.47,688.44 C289.28,687.37 289.95,685.13 289.97,683.45 C290.00,680.29 287.02,676.68 280.33,671.81 C264.31,660.12 257.70,653.92 259.85,652.59 C261.59,651.52 272.57,652.14 281.50,653.82 C302.78,657.84 312.21,660.42 322.74,665.11 C325.07,666.15 327.17,667.00 327.40,667.00 C327.63,667.00 331.13,668.90 335.16,671.23 C339.58,673.78 345.49,678.61 350.74,683.65 C343.23,676.57 335.48,672.04 330.63,671.97 C329.46,671.95 327.63,671.28 326.56,670.47 C324.02,668.55 322.09,668.61 321.31,670.63 C320.93,671.64 321.48,672.87 322.76,673.88 C324.39,675.15 324.89,676.79 325.08,681.50 C325.21,684.80 324.94,688.36 324.49,689.40 C323.19,692.41 325.53,699.19 330.27,706.14 C335.94,714.44 338.52,719.37 340.39,725.50 C346.21,744.51 344.59,765.59 336.37,778.02 C332.06,784.53 335.40,785.57 343.36,780.19 ZM 663.37 346.88 C666.29,345.55 667.43,342.38 665.28,341.55 C664.30,341.18 663.94,340.11 664.24,338.54 C664.49,337.20 664.18,335.90 663.55,335.66 C662.91,335.41 661.75,333.25 660.98,330.86 C658.86,324.33 657.73,322.47 653.17,318.05 C648.54,313.56 647.00,313.04 647.00,315.96 C647.00,317.04 645.16,319.63 642.92,321.71 C638.53,325.78 636.85,326.82 630.25,329.55 C627.91,330.51 626.00,331.66 626.00,332.10 C626.00,334.39 628.33,337.65 630.46,338.51 C620.51,335.34 599.01,317.27 593.83,307.50 C591.30,302.73 590.62,296.30 592.08,291.00 C592.75,288.60 595.84,286.81 599.82,286.52 C604.13,286.21 611.82,283.46 614.08,281.42 C614.95,280.64 615.99,280.00 616.40,280.00 C616.81,280.00 617.82,279.33 618.64,278.50 C620.94,276.20 623.01,276.67 629.00,280.81 C636.94,286.30 653.32,309.03 657.97,321.00 C658.72,322.92 659.89,325.17 660.57,326.00 C662.40,328.21 666.96,339.91 667.63,344.11 C667.95,346.11 667.83,347.95 667.36,348.20 C666.73,348.54 664.39,348.32 661.23,347.76 C661.73,347.59 662.52,347.27 663.37,346.88 ZM 686.90 320.92 C685.73,335.99 684.68,336.39 678.18,324.23 C671.30,311.39 663.30,300.86 650.63,288.00 C644.95,282.22 640.00,276.59 639.65,275.47 C639.14,273.86 639.76,273.06 642.75,271.50 C644.81,270.42 647.69,268.69 649.15,267.65 C650.62,266.61 652.26,266.04 652.82,266.39 C653.81,267.00 657.09,264.67 661.49,260.25 C662.72,259.01 664.08,258.00 664.51,258.00 C665.42,258.00 673.57,264.38 676.53,267.42 C684.17,275.24 688.65,298.37 686.90,320.92 ZM 685.40 326.63 C684.00,322.15 683.09,320.17 682.15,319.59 C681.61,319.26 680.87,317.19 680.50,314.99 C679.99,311.96 679.36,311.00 677.91,311.00 C675.21,311.00 675.27,317.80 678.00,321.27 C679.10,322.67 680.00,324.50 680.00,325.34 C680.00,327.54 682.81,330.01 684.56,329.34 C685.57,328.95 685.84,328.07 685.40,326.63 ZM 720.52 420.97 C720.86,420.41 721.18,416.92 721.22,413.22 C721.26,409.53 721.78,405.87 722.39,405.10 C723.21,404.06 722.65,404.13 720.25,405.37 C717.75,406.67 717.00,407.70 717.00,409.88 C717.00,411.43 716.50,414.12 715.90,415.86 C715.29,417.60 715.05,419.69 715.37,420.51 C716.02,422.20 719.56,422.52 720.52,420.97 ZM 626.30 606.10 C628.43,603.97 626.14,602.00 621.50,602.00 C616.51,602.00 614.77,603.82 617.09,606.61 C618.50,608.30 624.42,607.98 626.30,606.10 ZM 452.64 530.72 C453.24,530.01 453.79,529.35 454.31,528.74 C453.03,530.29 451.69,531.98 450.22,533.88 C447.07,537.94 443.45,542.44 442.18,543.88 L 439.85 546.50 L 440.41 543.88 C440.72,542.44 442.51,538.62 444.40,535.38 C446.28,532.15 449.03,527.25 450.51,524.50 C451.25,523.11 452.89,520.40 454.92,517.16 C452.46,521.27 450.16,525.45 448.06,529.67 C440.77,544.33 441.15,544.41 452.64,530.72 ZM 719.85 322.85 C716.61,324.73 712.43,327.07 709.82,328.45 C703.14,331.97 701.59,334.00 703.07,337.25 C703.81,338.88 705.57,340.27 712.21,343.68 C704.69,339.91 700.09,337.39 699.17,336.52 C697.69,335.13 698.88,334.25 711.00,327.75 C713.61,326.36 717.08,324.43 719.85,322.85 ZM 736.64 428.31 C735.44,427.11 735.99,425.00 737.50,425.00 C738.33,425.00 739.00,425.65 739.00,426.44 C739.00,428.11 737.57,429.24 736.64,428.31 ZM 461.41 507.09 L 461.56 506.87 C467.75,497.52 475.59,488.23 483.93,480.10 C475.90,488.02 468.22,497.21 461.41,507.09 ZM 757.84 486.81 C760.34,483.54 762.79,480.27 765.17,477.00 C773.83,465.12 780.19,456.05 785.15,448.50 C776.65,461.42 767.44,474.33 757.84,486.81 ZM 360.33 761.11 C362.75,756.69 364.74,750.92 366.13,744.71 C364.81,751.43 363.09,756.35 360.33,761.11 ZM 368.27 722.35 C368.20,720.68 368.07,719.06 367.87,717.50 C367.42,713.92 366.92,710.86 366.30,708.13 C367.47,712.68 368.12,717.38 368.27,722.35 ZM 363.37 699.47 C361.49,695.57 358.89,692.09 355.09,688.03 C358.77,691.94 361.66,695.59 362.74,698.00 C362.95,698.49 363.17,698.98 363.37,699.47 ZM 456.71 525.90 C460.47,521.51 462.34,519.65 467.29,515.41 C463.03,519.16 459.93,522.21 456.71,525.90 ZM 633.92 339.68 C634.16,339.80 634.36,339.91 634.50,340.01 C635.79,340.96 641.75,342.98 648.19,344.79 C641.92,343.11 636.14,341.22 634.50,340.02 C634.36,339.91 634.16,339.80 633.92,339.68 ZM 718.57 533.04 C726.31,524.80 734.06,516.06 741.58,507.09 C733.99,516.18 726.27,524.89 718.57,533.04 ZM 349.47 774.86 C351.50,772.80 353.59,770.47 355.44,768.17 C355.14,768.55 354.83,768.94 354.51,769.33 C352.96,771.23 351.27,773.08 349.47,774.86 Z" fill="rgb(51,145,115)"/>
<path d="M 757.84 486.81 L 757.84 486.81 C767.44,474.32 776.66,461.42 785.15,448.50 C793.43,435.92 799.66,426.26 802.00,422.43 C801.37,423.59 800.73,424.78 800.10,426.00 C794.02,437.66 773.38,468.14 757.11,489.50 C736.87,516.05 701.40,553.48 678.55,572.38 C638.37,605.63 594.69,630.49 551.36,644.77 C532.97,650.83 528.74,651.95 512.00,655.17 C469.44,663.36 428.16,660.87 388.50,647.72 C381.84,645.51 358.18,635.55 353.50,632.97 C351.85,632.07 346.67,629.26 342.00,626.73 C337.33,624.19 329.45,619.84 324.50,617.06 C313.62,610.94 302.09,605.98 296.00,604.79 C283.41,602.35 278.87,601.90 271.97,602.43 C254.12,603.80 242.06,612.93 242.02,625.10 C242.00,630.83 243.94,634.81 248.97,639.35 C255.03,644.82 263.04,648.17 278.00,651.45 C282.12,652.36 287.08,653.50 289.00,653.99 C290.92,654.47 294.75,655.41 297.50,656.06 C301.51,657.01 310.03,659.96 317.14,662.78 C308.47,659.45 298.98,657.12 281.50,653.82 C272.57,652.14 261.59,651.52 259.85,652.59 C257.70,653.92 264.31,660.12 280.33,671.81 C287.02,676.68 290.00,680.29 289.97,683.45 C289.95,685.13 289.28,687.37 288.47,688.44 C287.66,689.51 286.99,691.76 286.98,693.44 C286.97,695.75 286.74,696.13 286.03,695.01 C285.35,693.95 284.77,693.83 284.01,694.59 C282.65,695.95 283.76,699.00 285.61,699.00 C286.37,699.00 287.00,699.67 287.00,700.49 C287.00,701.77 289.96,703.97 299.50,709.79 C300.60,710.46 302.42,711.41 303.54,711.90 C306.77,713.31 310.93,720.17 312.15,726.08 C313.70,733.64 312.12,738.86 306.65,744.28 C301.97,748.91 293.85,755.00 292.35,755.00 C290.00,755.00 289.13,757.27 290.62,759.54 C292.74,762.78 293.68,781.49 292.02,787.43 C290.10,794.28 290.84,794.80 303.70,795.83 C304.91,795.92 308.51,795.28 311.70,794.40 C314.89,793.52 319.75,792.24 322.50,791.55 C325.88,790.70 329.55,789.16 333.27,787.10 C328.54,789.98 323.86,792.23 319.91,793.39 C310.34,796.19 305.44,797.35 298.00,798.58 C285.66,800.63 260.03,800.31 247.50,797.96 C227.83,794.26 224.89,793.42 210.91,787.52 C197.07,781.68 184.00,772.69 184.00,769.01 C184.00,767.94 185.06,764.68 186.36,761.78 C187.66,758.88 191.12,751.10 194.04,744.50 C200.06,730.90 202.66,726.66 204.51,727.36 C205.21,727.63 208.42,729.84 211.64,732.26 C226.42,743.36 244.10,750.15 265.50,752.93 C284.17,755.36 302.97,749.65 309.03,739.72 C311.41,735.81 311.73,725.30 309.59,721.20 C305.73,713.81 291.90,706.63 273.50,702.46 C270.20,701.72 262.55,699.70 256.50,697.99 C250.45,696.28 244.15,694.51 242.50,694.06 C240.85,693.62 235.68,691.57 231.00,689.50 C207.18,678.98 196.67,668.87 189.90,650.00 C187.84,644.27 187.57,641.72 187.59,628.50 C187.61,612.11 188.91,606.40 195.07,595.45 C202.39,582.47 216.20,570.85 232.30,564.15 C253.82,555.19 286.97,553.52 313.55,560.07 C322.07,562.17 340.39,569.14 349.45,573.73 C355.06,576.57 363.24,579.77 375.95,584.10 C383.71,586.74 386.78,587.50 400.00,590.09 C408.45,591.75 431.49,593.94 440.50,593.95 C453.39,593.96 478.54,590.72 490.50,587.51 C515.89,580.70 524.77,577.48 544.50,567.92 C577.51,551.93 610.80,527.77 642.87,496.50 C663.33,476.56 682.03,454.80 696.04,434.65 C699.04,430.33 703.46,424.32 705.85,421.29 C707.25,419.51 708.93,417.17 710.78,414.43 C702.13,428.11 693.53,440.87 687.84,448.00 C670.60,469.57 636.20,507.37 631.76,509.62 C630.80,510.10 626.30,514.13 621.76,518.57 C617.22,523.01 612.70,526.94 611.73,527.30 C610.75,527.66 609.67,528.75 609.33,529.73 C608.02,533.45 603.70,537.00 600.47,537.00 C597.23,537.00 595.35,538.54 593.15,543.00 C590.76,547.85 589.03,550.49 589.01,549.30 C589.00,548.40 588.24,548.37 585.95,549.17 C581.50,550.72 582.40,553.41 587.51,553.82 C589.70,554.00 591.84,554.75 592.25,555.48 C592.66,556.21 593.85,556.59 594.90,556.32 C596.21,555.97 597.50,556.76 599.03,558.83 C600.26,560.48 601.84,561.62 602.55,561.34 C603.26,561.07 604.84,561.38 606.05,562.03 C607.77,562.95 608.79,562.92 610.69,561.90 C612.74,560.80 613.28,560.82 614.05,562.05 C615.51,564.35 615.16,565.81 612.99,566.50 C611.88,566.86 611.21,567.53 611.50,568.01 C611.80,568.48 610.35,570.14 608.29,571.68 C606.23,573.23 603.63,575.26 602.52,576.20 C590.89,585.96 556.88,604.32 536.50,611.84 C524.92,616.11 506.44,621.69 499.50,623.01 C493.25,624.20 484.11,626.61 480.27,628.08 C478.91,628.61 478.25,629.50 478.59,630.37 C478.89,631.15 478.66,632.09 478.07,632.46 C476.52,633.42 476.76,636.56 478.50,638.00 C480.81,639.91 480.28,642.13 476.50,646.47 C474.59,648.65 473.41,650.81 473.87,651.27 C474.32,651.72 481.16,652.32 489.06,652.59 C496.96,652.86 503.63,653.30 503.89,653.55 C504.55,654.22 516.68,653.08 522.00,651.85 C524.47,651.28 527.62,650.45 529.00,650.02 C530.38,649.59 533.53,648.67 536.00,647.99 C538.47,647.30 542.30,646.15 544.50,645.44 C546.70,644.72 551.63,643.16 555.46,641.98 C571.17,637.14 603.36,622.31 619.99,612.25 C647.12,595.85 666.21,582.33 685.65,565.10 C696.04,556.03 707.28,545.07 718.57,533.04 C726.27,524.89 733.99,516.18 741.58,507.09 C747.17,500.42 752.62,493.63 757.84,486.81 ZM 461.41 507.09 C459.15,510.38 456.98,513.74 454.92,517.16 C452.89,520.40 451.25,523.11 450.51,524.50 C449.03,527.25 446.28,532.15 444.40,535.38 C442.51,538.62 440.72,542.44 440.41,543.88 L 439.85 546.50 L 442.18 543.88 C443.45,542.44 447.07,537.94 450.22,533.88 C451.69,531.98 453.03,530.29 454.31,528.74 C455.20,527.67 455.99,526.74 456.71,525.90 C459.93,522.21 463.03,519.16 467.29,515.41 C468.73,514.18 470.42,512.75 472.50,511.00 C479.59,505.01 490.73,497.73 498.00,494.33 C501.29,492.79 505.27,491.43 509.63,490.28 C503.60,492.25 491.87,498.38 482.50,504.56 C472.67,511.04 460.90,521.81 453.85,530.77 C450.93,534.47 448.28,537.72 447.96,538.00 C445.98,539.69 433.70,558.56 431.14,563.86 C429.45,567.35 427.55,570.84 426.91,571.61 C425.65,573.13 416.71,573.39 411.50,572.05 C409.85,571.63 404.90,570.53 400.50,569.61 C388.99,567.20 380.20,564.45 366.00,558.80 C349.85,552.37 348.64,551.59 349.48,548.17 C351.40,540.35 373.73,504.98 386.52,489.50 C396.09,477.92 415.33,458.85 425.60,450.75 C443.88,436.34 467.93,423.93 489.00,418.03 C491.48,417.34 494.62,416.40 496.00,415.96 C506.27,412.64 534.42,409.64 546.94,410.54 C575.72,412.61 598.63,418.82 621.00,430.64 C637.54,439.38 654.00,450.99 654.00,453.91 C654.00,456.36 642.33,469.48 625.87,485.53 C608.11,502.85 604.40,506.00 601.81,506.00 C600.60,506.00 596.20,503.76 592.03,501.02 C587.79,498.24 582.86,495.59 578.22,493.53 C582.84,495.42 587.16,497.46 587.56,498.09 C587.87,498.59 588.89,499.00 589.83,499.00 C590.77,499.00 593.10,500.06 595.02,501.36 C601.24,505.57 602.59,505.57 607.80,501.36 C615.97,494.74 647.00,463.45 647.00,461.83 C647.00,460.27 630.48,453.11 622.26,451.09 C620.19,450.59 616.03,449.53 613.00,448.74 C587.86,442.21 558.80,442.12 536.84,448.51 C530.48,450.36 517.67,455.73 511.00,459.35 C502.01,464.21 492.76,471.39 483.93,480.10 L 483.93 480.10 C475.59,488.23 467.75,497.52 461.56,506.87 ZM 804.86 791.34 C770.90,792.44 742.62,792.18 740.69,790.75 C739.49,789.86 738.57,786.36 737.48,778.50 C735.07,761.09 730.04,736.73 725.52,720.50 C724.60,717.20 723.49,712.47 723.05,710.00 C722.81,708.65 722.04,705.68 721.06,702.13 C722.38,706.11 723.57,709.44 724.02,710.24 C724.56,711.19 725.00,712.86 725.00,713.94 C725.00,715.02 725.40,716.94 725.90,718.20 C726.85,720.64 727.20,721.91 732.06,740.00 C733.75,746.33 735.56,752.28 736.07,753.24 C736.58,754.19 737.00,756.18 737.00,757.66 C737.00,759.95 739.39,764.00 740.74,764.00 C740.98,764.00 742.02,762.99 743.06,761.75 C744.09,760.51 744.95,758.96 744.97,758.31 C744.99,757.65 746.35,756.32 748.00,755.34 C749.65,754.37 751.00,753.22 751.00,752.79 C751.00,752.36 753.14,751.01 755.75,749.80 C758.36,748.58 761.09,747.00 761.82,746.29 C762.55,745.58 764.88,745.00 767.00,745.00 C769.97,745.00 771.01,744.54 771.49,743.02 C771.84,741.93 772.66,741.14 773.31,741.27 C775.49,741.69 774.10,728.11 770.46,713.35 C768.54,705.57 763.42,688.70 759.08,675.85 C754.75,663.01 750.75,650.70 750.20,648.50 L 750.08 648.04 C748.54,641.86 748.08,640.02 748.78,639.26 C749.10,638.93 749.64,638.80 750.43,638.61 C751.76,638.27 754.22,636.84 755.90,635.43 C757.58,634.01 759.45,633.16 760.05,633.53 C760.64,633.90 761.68,633.45 762.35,632.53 C764.22,629.98 771.59,629.32 773.99,631.49 C775.87,633.19 775.92,633.17 775.48,630.87 C774.32,624.73 773.71,622.42 773.01,621.50 C772.59,620.95 771.47,617.35 770.52,613.50 C768.63,605.87 757.19,583.09 748.16,569.00 C737.63,552.55 735.79,550.00 734.49,550.00 C733.77,550.00 726.70,556.19 718.79,563.75 C711.84,570.40 707.42,574.60 703.64,578.07 C702.70,578.87 701.58,579.88 700.22,581.11 C698.17,582.97 692.56,587.79 687.75,591.80 C682.09,596.52 679.00,599.81 679.00,601.10 C679.00,602.20 681.42,607.29 684.37,612.41 C687.48,617.80 690.45,623.38 693.36,629.32 C687.46,617.47 679.03,602.63 677.85,602.17 C675.81,601.36 677.40,598.78 682.75,594.15 C685.91,591.42 693.22,585.28 699.00,580.51 C704.78,575.74 715.02,566.42 721.77,559.81 C732.53,549.25 734.23,547.95 735.65,549.13 C738.33,551.35 750.57,570.15 758.15,583.70 C764.41,594.88 780.00,626.10 780.00,627.44 C780.00,627.72 781.09,630.32 782.42,633.24 C791.06,652.11 807.96,701.75 811.97,720.00 C813.34,726.24 819.05,751.44 819.57,753.50 C820.91,758.93 824.27,779.22 824.71,784.59 L 825.21 790.68 ZM 686.90 320.92 C688.65,298.37 684.17,275.24 676.53,267.42 C673.57,264.38 665.42,258.00 664.51,258.00 C664.08,258.00 662.72,259.01 661.49,260.25 C657.09,264.67 653.81,267.00 652.82,266.39 C652.26,266.04 650.62,266.61 649.15,267.65 C647.69,268.69 644.81,270.42 642.75,271.50 C639.76,273.06 639.14,273.86 639.65,275.47 C640.00,276.59 644.95,282.22 650.63,288.00 C658.35,295.84 664.34,302.82 669.40,309.98 C662.72,301.55 648.21,286.62 640.73,280.70 C632.03,273.83 625.00,269.34 625.00,270.66 C625.00,271.13 627.36,274.27 630.25,277.63 C633.14,280.99 636.31,284.73 637.29,285.93 C640.94,290.39 651.81,306.68 654.68,312.00 C656.92,316.15 660.19,323.60 662.90,330.36 C661.99,328.32 661.14,326.69 660.57,326.00 C659.89,325.17 658.72,322.92 657.97,321.00 C653.32,309.03 636.94,286.30 629.00,280.81 C623.01,276.67 620.94,276.20 618.64,278.50 C617.82,279.33 616.81,280.00 616.40,280.00 C615.99,280.00 614.95,280.64 614.08,281.42 C611.82,283.46 604.13,286.21 599.82,286.52 C595.84,286.81 592.75,288.60 592.08,291.00 C590.62,296.30 591.30,302.73 593.83,307.50 C598.79,316.86 618.70,333.82 629.13,338.03 L 629.00 337.99 C616.79,334.27 598.27,318.17 590.09,304.15 C581.16,288.87 577.05,271.17 577.02,247.92 C577.00,232.53 578.32,222.81 580.71,220.83 C583.27,218.70 610.68,223.68 626.50,229.14 C635.04,232.09 650.06,239.26 655.41,242.94 C666.37,250.48 676.66,262.09 681.32,272.16 C688.26,287.19 690.60,309.04 687.03,325.50 C686.54,327.73 686.12,329.46 685.70,330.67 C686.20,328.74 686.54,325.51 686.90,320.92 ZM 854.52 375.31 C853.81,344.52 852.80,308.45 852.05,290.50 C851.50,277.30 851.04,262.79 851.02,258.25 C851.01,253.06 850.60,250.00 849.93,250.00 C849.34,250.00 841.12,254.34 831.68,259.64 C827.23,262.14 822.72,264.66 818.93,266.79 C826.65,262.36 831.93,259.05 833.53,257.60 C837.02,254.41 850.75,247.41 851.68,248.35 C852.13,248.80 852.81,272.64 853.20,301.33 C853.50,324.02 854.04,353.82 854.52,375.31 ZM 855.30 428.67 C855.56,427.79 855.22,406.74 854.64,380.69 C854.72,384.24 854.80,387.50 854.88,390.35 C855.42,410.62 855.62,427.84 855.32,428.60 C855.31,428.63 855.31,428.65 855.30,428.67 ZM 715.95 685.20 C715.58,684.12 715.26,683.20 715.00,682.50 C714.70,681.71 713.81,679.30 712.77,676.47 C713.82,679.24 714.75,681.55 715.10,682.24 C715.49,682.99 715.82,684.19 715.95,685.20 ZM 803.00 420.59 C803.12,419.79 805.41,416.03 807.70,412.60 C806.29,414.83 804.68,417.56 803.00,420.59 ZM 513.06 489.44 C518.71,488.15 524.85,487.20 530.90,486.65 C525.33,487.21 519.36,488.14 513.06,489.44 ZM 679.89 327.36 C681.84,330.81 683.17,332.66 684.14,332.82 C683.16,332.88 681.90,331.05 679.89,327.36 ZM 737.44 369.06 C740.22,363.55 741.84,359.72 741.42,359.07 C741.88,359.76 740.32,363.47 737.44,369.06 ZM 634.50 340.05 C634.14,339.81 632.98,339.33 631.54,338.82 C632.42,339.07 633.31,339.39 633.92,339.68 L 633.92 339.68 C634.16,339.80 634.36,339.91 634.50,340.02 C636.14,341.22 641.92,343.11 648.19,344.79 C641.97,343.13 636.24,341.26 634.50,340.05 ZM 558.00 487.59 C561.58,488.43 566.08,489.46 568.00,489.90 C568.27,489.96 568.58,490.04 568.91,490.13 C568.60,490.05 568.30,489.98 568.00,489.91 C566.08,489.47 561.58,488.43 558.00,487.59 Z" fill="rgb(86,179,119)"/>
<path d="M 0.00 512.00 L 0.00 0.00 L 512.00 0.00 L 1024.00 0.00 L 1024.00 512.00 L 1024.00 1024.00 L 512.00 1024.00 L 0.00 1024.00 L 0.00 512.00 ZM 298.00 798.58 C305.44,797.35 310.34,796.19 319.91,793.39 C330.54,790.28 346.46,779.21 354.51,769.33 C362.62,759.37 365.37,752.32 367.51,736.00 C369.41,721.47 367.91,709.58 362.74,698.00 C359.88,691.62 344.32,676.51 335.16,671.23 C331.13,668.90 327.63,667.00 327.40,667.00 C327.17,667.00 325.07,666.15 322.74,665.12 C315.27,661.81 302.65,657.28 297.50,656.06 C294.75,655.41 290.92,654.47 289.00,653.99 C287.08,653.50 282.12,652.36 278.00,651.45 C263.04,648.17 255.03,644.82 248.97,639.35 C243.94,634.81 242.00,630.83 242.02,625.10 C242.06,612.93 254.12,603.80 271.97,602.43 C278.87,601.90 283.41,602.35 296.00,604.79 C302.09,605.98 313.62,610.94 324.50,617.06 C329.45,619.84 337.33,624.19 342.00,626.73 C346.67,629.26 351.85,632.07 353.50,632.97 C358.18,635.55 381.84,645.51 388.50,647.72 C428.16,660.87 469.44,663.36 512.00,655.17 C528.74,651.95 532.97,650.83 551.36,644.77 C594.69,630.49 638.37,605.63 678.55,572.38 C701.40,553.48 736.87,516.05 757.11,489.50 C773.38,468.14 794.02,437.66 800.10,426.00 C805.31,416.00 810.48,407.73 812.20,406.65 C813.39,405.90 816.75,407.54 826.39,413.58 C833.34,417.94 839.83,421.95 840.80,422.50 C841.78,423.05 844.85,424.96 847.63,426.75 C853.22,430.35 854.53,430.67 855.32,428.60 C855.62,427.84 855.42,410.62 854.88,390.35 C854.34,370.08 853.58,330.02 853.20,301.33 C852.81,272.64 852.13,248.80 851.68,248.35 C850.75,247.41 837.02,254.41 833.53,257.60 C831.40,259.53 822.76,264.76 810.50,271.52 C807.75,273.04 796.28,279.46 785.00,285.81 C773.72,292.15 762.03,298.69 759.00,300.35 C755.97,302.00 749.67,305.58 745.00,308.29 C740.33,311.00 734.50,314.36 732.05,315.75 C729.61,317.15 725.33,319.63 722.55,321.28 C719.77,322.92 714.58,325.84 711.00,327.75 C698.88,334.25 697.69,335.13 699.17,336.52 C700.53,337.81 709.95,342.70 725.00,349.94 C733.64,354.10 739.79,357.50 741.39,359.03 C743.32,360.87 716.59,407.69 705.85,421.29 C703.46,424.32 699.04,430.33 696.04,434.65 C682.03,454.80 663.33,476.56 642.87,496.50 C610.80,527.77 577.51,551.93 544.50,567.92 C524.77,577.48 515.89,580.70 490.50,587.51 C478.54,590.72 453.39,593.96 440.50,593.95 C431.49,593.94 408.45,591.75 400.00,590.09 C386.78,587.50 383.71,586.74 375.95,584.10 C363.24,579.77 355.06,576.57 349.45,573.73 C340.39,569.14 322.07,562.17 313.55,560.07 C286.97,553.52 253.82,555.19 232.30,564.15 C216.20,570.85 202.39,582.47 195.07,595.45 C188.91,606.40 187.61,612.11 187.59,628.50 C187.57,641.72 187.84,644.27 189.90,650.00 C196.67,668.87 207.18,678.98 231.00,689.50 C235.68,691.57 240.85,693.62 242.50,694.06 C244.15,694.51 250.45,696.28 256.50,697.99 C262.55,699.70 270.20,701.72 273.50,702.46 C291.90,706.63 305.73,713.81 309.59,721.20 C311.73,725.30 311.41,735.81 309.03,739.72 C302.97,749.65 284.17,755.36 265.50,752.93 C244.10,750.15 226.42,743.36 211.64,732.26 C208.42,729.84 205.21,727.63 204.51,727.36 C202.66,726.66 200.06,730.90 194.04,744.50 C191.12,751.10 187.66,758.88 186.36,761.78 C185.06,764.68 184.00,767.94 184.00,769.01 C184.00,772.69 197.07,781.68 210.91,787.52 C224.89,793.42 227.83,794.26 247.50,797.96 C260.03,800.31 285.66,800.63 298.00,798.58 ZM 804.86 791.34 L 825.21 790.68 L 824.71 784.59 C824.27,779.22 820.91,758.93 819.57,753.50 C819.05,751.44 813.34,726.24 811.97,720.00 C807.96,701.75 791.06,652.11 782.42,633.24 C781.09,630.32 780.00,627.72 780.00,627.44 C780.00,626.10 764.41,594.88 758.15,583.70 C750.57,570.15 738.33,551.35 735.65,549.13 C734.23,547.95 732.53,549.25 721.77,559.81 C715.02,566.42 704.78,575.74 699.00,580.51 C693.22,585.28 685.91,591.42 682.75,594.15 C677.40,598.78 675.81,601.36 677.85,602.17 C679.14,602.68 689.12,620.42 694.97,632.61 C699.96,643.01 705.57,656.72 711.50,673.00 C713.01,677.12 714.58,681.40 715.00,682.50 C717.02,687.81 722.34,706.01 723.05,710.00 C723.49,712.47 724.60,717.20 725.52,720.50 C730.04,736.73 735.07,761.09 737.48,778.50 C738.57,786.36 739.49,789.86 740.69,790.75 C742.62,792.18 770.90,792.44 804.86,791.34 ZM 426.91 571.61 C427.55,570.84 429.45,567.35 431.14,563.86 C433.70,558.56 445.98,539.69 447.96,538.00 C448.28,537.72 450.93,534.47 453.85,530.77 C460.90,521.81 472.67,511.04 482.50,504.56 C492.90,497.71 506.19,490.92 511.38,489.80 C530.45,485.69 546.59,484.92 558.00,487.59 C561.58,488.43 566.08,489.47 568.00,489.91 C574.37,491.36 584.34,495.97 592.03,501.02 C596.20,503.76 600.60,506.00 601.81,506.00 C604.40,506.00 608.11,502.85 625.87,485.53 C642.33,469.48 654.00,456.36 654.00,453.91 C654.00,450.99 637.54,439.38 621.00,430.64 C598.63,418.82 575.72,412.61 546.94,410.54 C534.42,409.64 506.27,412.64 496.00,415.96 C494.62,416.40 491.48,417.34 489.00,418.03 C467.93,423.93 443.88,436.34 425.60,450.75 C415.33,458.85 396.09,477.92 386.52,489.50 C373.73,504.98 351.40,540.35 349.48,548.17 C348.64,551.59 349.85,552.37 366.00,558.80 C380.20,564.45 388.99,567.20 400.50,569.61 C404.90,570.53 409.85,571.63 411.50,572.05 C416.71,573.39 425.65,573.13 426.91,571.61 ZM 667.62 344.03 C666.92,339.66 658.93,319.88 654.68,312.00 C651.81,306.68 640.94,290.39 637.29,285.93 C636.31,284.73 633.14,280.99 630.25,277.63 C627.36,274.27 625.00,271.13 625.00,270.66 C625.00,269.34 632.03,273.83 640.73,280.70 C649.22,287.42 666.77,305.75 671.64,313.00 C673.31,315.48 676.63,321.22 679.03,325.76 C684.04,335.23 684.92,335.20 687.03,325.50 C690.60,309.04 688.26,287.19 681.32,272.16 C676.66,262.09 666.37,250.48 655.41,242.94 C650.06,239.26 635.04,232.09 626.50,229.14 C610.68,223.68 583.27,218.70 580.71,220.83 C578.32,222.81 577.00,232.53 577.02,247.92 C577.05,271.17 581.16,288.87 590.09,304.15 C598.27,318.17 616.79,334.27 629.00,337.99 C631.47,338.74 633.95,339.67 634.50,340.05 C638.60,342.90 665.01,349.45 667.36,348.20 C667.83,347.95 667.95,346.08 667.62,344.03 Z" fill="rgb(254,254,254)"/>
</g>
</svg>